<svg height="512pt" viewBox="0 0 511 512" width="512pt" xmlns="http://www.w3.org/2000/svg"><path d="m257.128906 512h120c8.292969 0 14.371094-6.710938 14.371094-15v-76h45.628906c8.292969 0 14.371094-6.710938 14.371094-15v-75h46c4.980469 0 9.625-2.476562 12.421875-6.59375 2.78125-4.113281 3.355469-9.359375 1.507813-13.972656l-39.929688-98.746094v-45.6875c0-90.980469-73.964844-166-164.945312-166h-49.425782c-.109375 0-.203125.0625-.3125.0625-.113281 0-.203125-.0625-.316406-.0625l-150 91v300.007812l150 120.992188c.113281 0 .203125-.0625.316406-.0625.109375 0 .203125.0625.3125.0625zm0 0" fill="#00c8c8"/><path d="m271.5 271c-5.210938 0-10.179688.871094-15 2.121094v-52.816406c-10.996094 12.582031-26.976562 20.695312-45 20.695312-33.136719 0-60-26.863281-60-60s26.863281-60 60-60c18.023438 0 34.003906 8.113281 45 20.695312v-141.695312h-49.425781c-90.980469 0-164.574219 75.019531-164.574219 166v45.6875l-40.929688 98.746094c-1.847656 4.613281-1.277343 9.859375 1.507813 13.976562 2.796875 4.113282 7.441406 6.589844 12.421875 6.589844h46v75c0 8.289062 6.707031 15 15 15h45v76c0 8.289062 6.707031 15 15 15h120v-123.121094c4.820312 1.25 9.789062 2.121094 15 2.121094 33.136719 0 60-26.863281 60-60s-26.863281-60-60-60zm0 0" fill="#fed2a4"/></svg>