<svg id="Capa_1" enable-background="new 0 0 510.001 510.001" height="512" viewBox="0 0 510.001 510.001" width="512" xmlns="http://www.w3.org/2000/svg"><path d="m460.341 406.868c-53.19 9.86-94.88 37.5-124.52 88.1-42.496-16.979-55.145-23.94-80.82-23.94-25.672.019-38.34 6.999-80.71 23.97h-.09c-34.32-58.51-81.4-80.22-124.54-88.13v-.02c10.481-52.107 7.261-36.102 14.34-71.28l7.39-36.72c1.05-5.22 6.01-8.74 11.28-7.92 75.84 11.76 145.11 48.13 172.33 119.88 27.22-71.75 96.49-108.12 172.33-119.88 5.27-.82 10.23 2.7 11.28 7.92l7.39 36.72c7.479 37.171 4.258 21.154 14.34 71.3z" fill="#fff5f5"/><path d="m460.341 406.868c-53.19 9.86-94.88 37.5-124.52 88.1-42.496-16.979-55.145-23.94-80.82-23.94v-60.22c27.22-71.75 96.49-108.12 172.33-119.88 5.27-.82 10.23 2.7 11.28 7.92l7.39 36.72c7.479 37.171 4.258 21.154 14.34 71.3z" fill="#ebe1dc"/><path d="m188.951 412.368c-5.627 6.065-15.144 6.417-21.19.79-37.858-35.114-78.7-41.523-109.68-48.17l5.92-29.42c55.33 9.57 92.48 26.21 124.16 55.6 6.07 5.63 6.43 15.12.79 21.2z" fill="#ebe1dc"/><path d="m451.921 364.988c-26.001 5.579-70.231 11.58-109.68 48.17-6.047 5.627-15.564 5.275-21.19-.79-5.64-6.08-5.28-15.57.79-21.2 31.68-29.39 68.83-46.03 124.16-55.6z" fill="#fff5f5"/><path d="m495.841 417.768c-70.71 4.3-114.68 29.67-147.02 84.82-3.85 6.57-11.98 9.17-18.89 6.18-38.5-15.38-57.31-22.88-74.93-23.13-18.86-.28-36.34 7.75-75.13 23.28-6.89 2.77-14.76.07-18.52-6.33-31.82-54.25-78.54-81.14-147.04-84.63-8.28-.42-14.64-7.47-14.22-15.74.42-8.28 7.48-14.64 15.74-14.22 69.7 3.55 125.45 29.09 164.54 88.38.09-.03.18-.07.27-.11 34.38-13.87 53.39-21.14 74.36-20.72 19.01.38 39.63 7.07 74.75 20.88 37.03-56.51 88.23-83.98 164.27-88.6 8.25-.51 15.38 5.79 15.88 14.06.51 8.27-5.79 15.38-14.06 15.88z" fill="#00ccb3"/><path d="m495.841 417.768c-70.71 4.3-114.68 29.67-147.02 84.82-3.85 6.57-11.98 9.17-18.89 6.18-38.5-15.38-57.31-22.88-74.93-23.13v-30.09c19.01.38 39.63 7.07 74.75 20.88 37.03-56.51 88.23-83.98 164.27-88.6 8.25-.51 15.38 5.79 15.88 14.06.51 8.27-5.79 15.38-14.06 15.88z" fill="#00b6bd"/><path d="m357.01 102.01c0 51.24-37.78 93.66-87.01 100.91-4.9.73-9.9 1.1-15 1.1s-10.1-.37-15-1.1c-49.23-7.25-87.01-49.67-87.01-100.91 0-56.34 45.67-102.01 102.01-102.01s102.01 45.67 102.01 102.01z" fill="#ffb655"/><path d="m357.01 102.01c0 51.24-37.78 93.66-87.01 100.91-4.9.73-9.9 1.1-15 1.1v-204.02c56.34 0 102.01 45.67 102.01 102.01z" fill="#ff9100"/><path d="m299.7 126.23c-4.15 7.18-13.32 9.64-20.49 5.5l-9.21-5.32v76.51c-4.9.73-9.9 1.1-15 1.1s-10.1-.37-15-1.1v-76.51l-9.21 5.32c-7.18 4.14-16.35 1.68-20.49-5.5-4.15-7.17-1.69-16.34 5.49-20.49l9.21-5.31-9.21-5.32c-7.18-4.14-9.64-13.32-5.49-20.49 4.14-7.18 13.31-9.64 20.49-5.49l9.21 5.32v-10.64c0-8.28 6.71-15 15-15 8.28 0 15 6.72 15 15v10.64l9.21-5.32c7.17-4.14 16.35-1.69 20.49 5.49 4.14 7.17 1.68 16.35-5.49 20.49l-9.21 5.32 9.21 5.31c7.17 4.15 9.63 13.32 5.49 20.49z" fill="#fff5f5"/><path d="m299.7 126.23c-4.15 7.18-13.32 9.64-20.49 5.5l-9.21-5.32v76.51c-4.9.73-9.9 1.1-15 1.1v-155.21c8.28 0 15 6.72 15 15v10.64l9.21-5.32c7.17-4.14 16.35-1.69 20.49 5.49 4.14 7.17 1.68 16.35-5.49 20.49l-9.21 5.32 9.21 5.31c7.17 4.15 9.63 13.32 5.49 20.49z" fill="#ebe1dc"/><path d="m308.56 188.83-4.97 74.3c-.53 7.88-7.07 14-14.97 14h-67.25c-7.89 0-14.44-6.12-14.96-14l-4.97-74.3z" fill="#736e6e"/><path d="m308.56 188.83-4.97 74.3c-.53 7.88-7.07 14-14.97 14h-33.62v-88.3z" fill="#5a5555"/></svg>