<svg height="512pt" viewBox="0 0 512 512" width="512pt" xmlns="http://www.w3.org/2000/svg"><path d="m498.800781 388.300781-51.699219 123.699219h-401.101562c-24.902344 0-46-21.101562-46-46v-18.898438l63.699219-99.300781 89.703125-67.199219 102.597656-24.601562 144.601562 12.597656zm0 0" fill="#64e1dc"/><path d="m498.800781 388.300781-51.699219 123.699219h-191.101562v-256l144.601562 12.597656zm0 0" fill="#00c8c8"/><path d="m183.261719 310.550781 72.734375-54.550781-24.550782-102.730469-67.203124-89.605469-99.5-63.664062h-18.742188c-24.851562 0-46 21.148438-46 46v401.246094l93.664062-69.5c7.285157 24.929687 30.054688 43.253906 57.335938 43.253906 33.136719 0 60-26.863281 60-60 0-21.234375-11.097656-39.785156-27.738281-50.449219zm0 0" fill="#ff637b"/><path d="m512 46v18.601562l-33.699219 99.597657-119.703125 67.199219-102.597656 24.601562-54.601562-72.601562c-10.496094 16.5-29.097657 27.601562-50.398438 27.601562-33 0-60-27-60-60 0-27.300781 18.300781-50.101562 43.199219-57.300781l-69.597657-93.699219h401.398438c24.902344 0 46 21.097656 46 46zm0 0" fill="#ffda2d"/><path d="m512 46v18.601562l-33.699219 99.597657-119.703125 67.199219-102.597656 24.601562v-256h210c24.902344 0 46 21.097656 46 46zm0 0" fill="#fdbf00"/><path d="m512 64.601562v401.398438c0 24.898438-21.097656 46-46 46h-18.898438l-69.300781-93.699219c24.898438-7.203125 43.199219-30 43.199219-57.300781 0-33-27-60-60-60-21.300781 0-39.902344 11.101562-50.398438 27.597656l-54.601562-72.597656 72.597656-54.601562c-16.496094-10.5-27.597656-29.097657-27.597656-50.398438 0-33 27-60 60-60 27.300781 0 50.097656 18.300781 57.300781 43.199219zm0 0" fill="#575f64"/></svg>